<mxfile host="app.diagrams.net" modified="2020-12-24T16:22:33.503Z" agent="5.0 (Macintosh; Intel Mac OS X 10_15_6) AppleWebKit/605.1.15 (KHTML, like Gecko) Version/14.0.2 Safari/605.1.15" etag="9rw6UZF_AiwpvHRsuxjV" version="13.9.9" type="github">
  <diagram id="x2PmlvAJv_ifcK5xUWja" name="第 1 页">
    <mxGraphModel dx="1450" dy="902" grid="1" gridSize="10" guides="1" tooltips="1" connect="1" arrows="1" fold="1" page="1" pageScale="1" pageWidth="827" pageHeight="1169" math="0" shadow="0">
      <root>
        <mxCell id="0" />
        <mxCell id="1" parent="0" />
        <mxCell id="-5DfbcvIHxEYxNOzWpbB-26" value="" style="rounded=0;whiteSpace=wrap;html=1;shadow=0;comic=1;sketch=0;fontFamily=Courier New;fontSize=16;align=left;dashed=1;" vertex="1" parent="1">
          <mxGeometry x="70" y="1169" width="720" height="121" as="geometry" />
        </mxCell>
        <mxCell id="-5DfbcvIHxEYxNOzWpbB-25" value="" style="rounded=0;whiteSpace=wrap;html=1;shadow=0;comic=1;sketch=0;fontFamily=Courier New;fontSize=16;align=left;dashed=1;" vertex="1" parent="1">
          <mxGeometry x="70" y="480" width="720" height="680" as="geometry" />
        </mxCell>
        <mxCell id="-5DfbcvIHxEYxNOzWpbB-24" value="" style="endArrow=classic;html=1;fontFamily=Courier New;fontSize=16;fontColor=#000000;strokeWidth=2;" edge="1" parent="1">
          <mxGeometry width="50" height="50" relative="1" as="geometry">
            <mxPoint x="610" y="520" as="sourcePoint" />
            <mxPoint x="611" y="1310" as="targetPoint" />
          </mxGeometry>
        </mxCell>
        <mxCell id="-5DfbcvIHxEYxNOzWpbB-23" value="" style="endArrow=classic;html=1;fontFamily=Courier New;fontSize=16;fontColor=#000000;strokeWidth=2;" edge="1" parent="1">
          <mxGeometry width="50" height="50" relative="1" as="geometry">
            <mxPoint x="199.5" y="520" as="sourcePoint" />
            <mxPoint x="200" y="1310" as="targetPoint" />
          </mxGeometry>
        </mxCell>
        <mxCell id="-5DfbcvIHxEYxNOzWpbB-1" value="&lt;div style=&quot;overflow: auto ; margin-top: 0px ; margin-bottom: 0px ; font-size: 16px&quot; class=&quot;newpage&quot;&gt;&lt;font style=&quot;font-size: 16px&quot;&gt;&lt;b&gt;ClientHello&lt;/b&gt;&lt;/font&gt;&lt;/div&gt;&lt;div style=&quot;overflow: auto ; margin-top: 0px ; margin-bottom: 0px ; font-size: 16px&quot; class=&quot;newpage&quot;&gt;&lt;font&gt;&amp;nbsp; - TLS Version&lt;/font&gt;&lt;/div&gt;&lt;div style=&quot;overflow: auto ; margin-top: 0px ; margin-bottom: 0px ; font-size: 16px&quot; class=&quot;newpage&quot;&gt;&lt;font&gt;&amp;nbsp; - Client Random&lt;/font&gt;&lt;/div&gt;&lt;div style=&quot;overflow: auto ; margin-top: 0px ; margin-bottom: 0px ; font-size: 16px&quot; class=&quot;newpage&quot;&gt;&lt;font&gt;&amp;nbsp; - Cipher Suites&lt;/font&gt;&lt;/div&gt;&lt;div style=&quot;overflow: auto ; margin-top: 0px ; margin-bottom: 0px ; font-size: 16px&quot; class=&quot;newpage&quot;&gt;&lt;font style=&quot;font-size: 16px&quot;&gt;&lt;/font&gt;&lt;/div&gt;" style="rounded=1;whiteSpace=wrap;html=1;sketch=0;shadow=0;comic=1;fontFamily=Courier New;labelBackgroundColor=none;fillColor=#dae8fc;fontSize=16;align=left;" vertex="1" parent="1">
          <mxGeometry x="100" y="535" width="200" height="100" as="geometry" />
        </mxCell>
        <mxCell id="-5DfbcvIHxEYxNOzWpbB-2" value="&lt;div style=&quot;overflow: auto ; margin-top: 0px ; margin-bottom: 0px&quot; class=&quot;newpage&quot;&gt;ServerHelloDone&amp;nbsp;&lt;br&gt;&lt;/div&gt;" style="rounded=1;whiteSpace=wrap;html=1;sketch=0;shadow=0;comic=1;fontFamily=Courier New;labelBackgroundColor=none;fillColor=#cdeb8b;fontSize=16;align=left;fontStyle=1;strokeColor=#36393d;" vertex="1" parent="1">
          <mxGeometry x="470" y="850" width="300" height="60" as="geometry" />
        </mxCell>
        <mxCell id="-5DfbcvIHxEYxNOzWpbB-5" value="&lt;div style=&quot;overflow: auto ; margin-top: 0px ; margin-bottom: 0px ; font-size: 16px&quot; class=&quot;newpage&quot;&gt;&lt;div style=&quot;overflow: auto ; margin-top: 0px ; margin-bottom: 0px&quot; class=&quot;newpage&quot;&gt;Application Data &lt;/div&gt;&lt;/div&gt;" style="rounded=1;whiteSpace=wrap;html=1;sketch=0;shadow=0;comic=1;fontFamily=Courier New;labelBackgroundColor=none;fillColor=#ffcc99;fontSize=16;strokeColor=#36393d;fontStyle=1" vertex="1" parent="1">
          <mxGeometry x="107" y="1200" width="200" height="70" as="geometry" />
        </mxCell>
        <mxCell id="-5DfbcvIHxEYxNOzWpbB-6" value="&lt;div style=&quot;overflow: auto ; margin-top: 0px ; margin-bottom: 0px ; font-size: 16px&quot; class=&quot;newpage&quot;&gt;&lt;div style=&quot;overflow: auto ; margin-top: 0px ; margin-bottom: 0px&quot; class=&quot;newpage&quot;&gt;Application Data &lt;/div&gt;&lt;/div&gt;" style="rounded=1;whiteSpace=wrap;html=1;sketch=0;shadow=0;comic=1;fontFamily=Courier New;labelBackgroundColor=none;fillColor=#ffcc99;fontSize=16;strokeColor=#36393d;fontStyle=1" vertex="1" parent="1">
          <mxGeometry x="467" y="1200" width="295" height="70" as="geometry" />
        </mxCell>
        <mxCell id="-5DfbcvIHxEYxNOzWpbB-7" value="&lt;div style=&quot;overflow: auto ; margin-top: 0px ; margin-bottom: 0px ; font-size: 16px&quot; class=&quot;newpage&quot;&gt;&lt;font style=&quot;font-size: 16px&quot;&gt;&lt;b&gt;ServerHello&lt;/b&gt;&lt;/font&gt;&lt;/div&gt;&lt;div style=&quot;overflow: auto ; margin-top: 0px ; margin-bottom: 0px ; font-size: 16px&quot; class=&quot;newpage&quot;&gt;&amp;nbsp; - TLS Version&lt;/div&gt;&lt;div style=&quot;overflow: auto ; margin-top: 0px ; margin-bottom: 0px ; font-size: 16px&quot; class=&quot;newpage&quot;&gt;&amp;nbsp; - Client Random&lt;/div&gt;&lt;div style=&quot;overflow: auto ; margin-top: 0px ; margin-bottom: 0px ; font-size: 16px&quot; class=&quot;newpage&quot;&gt;&amp;nbsp; - Cipher Suites(ECDHE_RSA)&lt;/div&gt;&lt;div style=&quot;overflow: auto ; margin-top: 0px ; margin-bottom: 0px ; font-size: 16px&quot; class=&quot;newpage&quot;&gt;&lt;font style=&quot;font-size: 16px&quot;&gt;&lt;/font&gt;&lt;/div&gt;" style="rounded=1;whiteSpace=wrap;html=1;sketch=0;shadow=0;comic=1;fontFamily=Courier New;labelBackgroundColor=none;fillColor=#cdeb8b;fontSize=16;align=left;strokeColor=#36393d;" vertex="1" parent="1">
          <mxGeometry x="470" y="585" width="300" height="95" as="geometry" />
        </mxCell>
        <mxCell id="-5DfbcvIHxEYxNOzWpbB-8" value="&lt;div style=&quot;overflow: auto ; margin-top: 0px ; margin-bottom: 0px ; font-size: 16px&quot; class=&quot;newpage&quot;&gt;&lt;b&gt;ServerKeyExchange&lt;/b&gt;&lt;br&gt;&lt;/div&gt;&lt;div style=&quot;overflow: auto ; margin-top: 0px ; margin-bottom: 0px ; font-size: 16px&quot; class=&quot;newpage&quot;&gt;&amp;nbsp; - Named Curve&lt;/div&gt;&lt;div style=&quot;overflow: auto ; margin-top: 0px ; margin-bottom: 0px ; font-size: 16px&quot; class=&quot;newpage&quot;&gt;&amp;nbsp; - Pubkey&lt;/div&gt;&lt;span style=&quot;color: rgb(51 , 51 , 51)&quot;&gt;&amp;nbsp; - Signature&lt;br&gt;&lt;/span&gt;&lt;div style=&quot;overflow: auto ; margin-top: 0px ; margin-bottom: 0px ; font-size: 16px&quot; class=&quot;newpage&quot;&gt;&lt;font style=&quot;font-size: 16px&quot;&gt;&lt;/font&gt;&lt;/div&gt;" style="rounded=1;whiteSpace=wrap;html=1;sketch=0;shadow=0;comic=1;fontFamily=Courier New;labelBackgroundColor=none;fillColor=#cdeb8b;fontSize=16;align=left;strokeColor=#36393d;" vertex="1" parent="1">
          <mxGeometry x="470" y="740" width="300" height="110" as="geometry" />
        </mxCell>
        <mxCell id="-5DfbcvIHxEYxNOzWpbB-9" value="&lt;div style=&quot;overflow: auto ; margin-top: 0px ; margin-bottom: 0px&quot; class=&quot;newpage&quot;&gt;&lt;div style=&quot;overflow: auto ; margin-top: 0px ; margin-bottom: 0px&quot; class=&quot;newpage&quot;&gt;Certificate&lt;/div&gt;&lt;/div&gt;" style="rounded=1;whiteSpace=wrap;html=1;sketch=0;shadow=0;comic=1;fontFamily=Courier New;labelBackgroundColor=none;fillColor=#cdeb8b;fontSize=16;align=left;fontStyle=1;strokeColor=#36393d;" vertex="1" parent="1">
          <mxGeometry x="470" y="680" width="300" height="60" as="geometry" />
        </mxCell>
        <mxCell id="-5DfbcvIHxEYxNOzWpbB-10" value="&lt;div style=&quot;overflow: auto ; margin-top: 0px ; margin-bottom: 0px ; font-size: 16px&quot; class=&quot;newpage&quot;&gt;&lt;b&gt;ClientKeyExchange&lt;/b&gt;&lt;br&gt;&lt;/div&gt;&lt;div style=&quot;overflow: auto ; margin-top: 0px ; margin-bottom: 0px ; font-size: 16px&quot; class=&quot;newpage&quot;&gt;&amp;nbsp; - Pubkey&lt;/div&gt;&lt;div style=&quot;overflow: auto ; margin-top: 0px ; margin-bottom: 0px ; font-size: 16px&quot; class=&quot;newpage&quot;&gt;&lt;font style=&quot;font-size: 16px&quot;&gt;&lt;/font&gt;&lt;/div&gt;" style="rounded=1;whiteSpace=wrap;html=1;sketch=0;shadow=0;comic=1;fontFamily=Courier New;labelBackgroundColor=none;fillColor=#dae8fc;fontSize=16;align=left;" vertex="1" parent="1">
          <mxGeometry x="90" y="880" width="200" height="60" as="geometry" />
        </mxCell>
        <mxCell id="-5DfbcvIHxEYxNOzWpbB-11" value="&lt;div style=&quot;overflow: auto ; margin-top: 0px ; margin-bottom: 0px&quot; class=&quot;newpage&quot;&gt;&lt;div style=&quot;overflow: auto ; margin-top: 0px ; margin-bottom: 0px&quot; class=&quot;newpage&quot;&gt;&lt;div style=&quot;overflow: auto ; margin-top: 0px ; margin-bottom: 0px&quot; class=&quot;newpage&quot;&gt;ChangeCipherSpec&lt;/div&gt;&lt;/div&gt;&lt;/div&gt;" style="rounded=1;whiteSpace=wrap;html=1;sketch=0;shadow=0;comic=1;fontFamily=Courier New;labelBackgroundColor=none;fillColor=#cdeb8b;fontSize=16;align=left;fontStyle=1;strokeColor=#36393d;" vertex="1" parent="1">
          <mxGeometry x="470" y="1030" width="300" height="50" as="geometry" />
        </mxCell>
        <mxCell id="-5DfbcvIHxEYxNOzWpbB-12" value="&lt;div style=&quot;overflow: auto ; margin-top: 0px ; margin-bottom: 0px&quot; class=&quot;newpage&quot;&gt;&lt;div style=&quot;overflow: auto ; margin-top: 0px ; margin-bottom: 0px&quot; class=&quot;newpage&quot;&gt;&lt;div style=&quot;overflow: auto ; margin-top: 0px ; margin-bottom: 0px&quot; class=&quot;newpage&quot;&gt;&lt;div style=&quot;overflow: auto ; margin-top: 0px ; margin-bottom: 0px&quot; class=&quot;newpage&quot;&gt;Finished&lt;/div&gt;&lt;/div&gt;&lt;/div&gt;&lt;/div&gt;" style="rounded=1;whiteSpace=wrap;html=1;sketch=0;shadow=0;comic=1;fontFamily=Courier New;labelBackgroundColor=none;fillColor=#cdeb8b;fontSize=16;align=left;fontStyle=1;strokeColor=#36393d;" vertex="1" parent="1">
          <mxGeometry x="470" y="1080" width="300" height="50" as="geometry" />
        </mxCell>
        <mxCell id="-5DfbcvIHxEYxNOzWpbB-14" value="&lt;div style=&quot;overflow: auto ; margin-top: 0px ; margin-bottom: 0px&quot; class=&quot;newpage&quot;&gt;&lt;div style=&quot;overflow: auto ; margin-top: 0px ; margin-bottom: 0px&quot; class=&quot;newpage&quot;&gt;&lt;div style=&quot;overflow: auto ; margin-top: 0px ; margin-bottom: 0px&quot; class=&quot;newpage&quot;&gt;ChangeCipherSpec&lt;/div&gt;&lt;/div&gt;&lt;/div&gt;" style="rounded=1;whiteSpace=wrap;html=1;sketch=0;shadow=0;comic=1;fontFamily=Courier New;labelBackgroundColor=none;fillColor=#dae8fc;fontSize=16;align=left;fontStyle=1" vertex="1" parent="1">
          <mxGeometry x="90" y="940" width="200" height="50" as="geometry" />
        </mxCell>
        <mxCell id="-5DfbcvIHxEYxNOzWpbB-15" value="&lt;div style=&quot;overflow: auto ; margin-top: 0px ; margin-bottom: 0px&quot; class=&quot;newpage&quot;&gt;&lt;div style=&quot;overflow: auto ; margin-top: 0px ; margin-bottom: 0px&quot; class=&quot;newpage&quot;&gt;&lt;div style=&quot;overflow: auto ; margin-top: 0px ; margin-bottom: 0px&quot; class=&quot;newpage&quot;&gt;&lt;div style=&quot;overflow: auto ; margin-top: 0px ; margin-bottom: 0px&quot; class=&quot;newpage&quot;&gt;Finished&lt;/div&gt;&lt;/div&gt;&lt;/div&gt;&lt;/div&gt;" style="rounded=1;whiteSpace=wrap;html=1;sketch=0;shadow=0;comic=1;fontFamily=Courier New;labelBackgroundColor=none;fillColor=#dae8fc;fontSize=16;align=left;fontStyle=1" vertex="1" parent="1">
          <mxGeometry x="90" y="990" width="200" height="50" as="geometry" />
        </mxCell>
        <mxCell id="-5DfbcvIHxEYxNOzWpbB-17" value="" style="shape=flexArrow;endArrow=classic;html=1;fontFamily=Courier New;fontSize=16;fontColor=#000000;endWidth=38;endSize=12.33;width=18;fillColor=#f9f7ed;strokeColor=#36393d;" edge="1" parent="1">
          <mxGeometry width="50" height="50" relative="1" as="geometry">
            <mxPoint x="310" y="584" as="sourcePoint" />
            <mxPoint x="460" y="584" as="targetPoint" />
          </mxGeometry>
        </mxCell>
        <mxCell id="-5DfbcvIHxEYxNOzWpbB-19" value="" style="shape=flexArrow;endArrow=classic;html=1;fontFamily=Courier New;fontSize=16;fontColor=#000000;endWidth=38;endSize=12.33;width=18;fillColor=#f9f7ed;strokeColor=#36393d;" edge="1" parent="1">
          <mxGeometry width="50" height="50" relative="1" as="geometry">
            <mxPoint x="450" y="710" as="sourcePoint" />
            <mxPoint x="300" y="710" as="targetPoint" />
          </mxGeometry>
        </mxCell>
        <mxCell id="-5DfbcvIHxEYxNOzWpbB-20" value="" style="shape=flexArrow;endArrow=classic;html=1;fontFamily=Courier New;fontSize=16;fontColor=#000000;endWidth=38;endSize=12.33;width=18;fillColor=#f9f7ed;strokeColor=#36393d;" edge="1" parent="1">
          <mxGeometry width="50" height="50" relative="1" as="geometry">
            <mxPoint x="300" y="960" as="sourcePoint" />
            <mxPoint x="450" y="960" as="targetPoint" />
          </mxGeometry>
        </mxCell>
        <mxCell id="-5DfbcvIHxEYxNOzWpbB-21" value="" style="shape=flexArrow;endArrow=classic;html=1;fontFamily=Courier New;fontSize=16;fontColor=#000000;endWidth=38;endSize=12.33;width=18;fillColor=#f9f7ed;strokeColor=#36393d;" edge="1" parent="1">
          <mxGeometry width="50" height="50" relative="1" as="geometry">
            <mxPoint x="450" y="1090" as="sourcePoint" />
            <mxPoint x="300" y="1090" as="targetPoint" />
          </mxGeometry>
        </mxCell>
        <mxCell id="-5DfbcvIHxEYxNOzWpbB-22" value="" style="shape=flexArrow;endArrow=classic;startArrow=classic;html=1;fontFamily=Courier New;fontSize=16;fontColor=#000000;width=20;startSize=8.35;fillColor=#f9f7ed;strokeColor=#36393d;" edge="1" parent="1">
          <mxGeometry width="50" height="50" relative="1" as="geometry">
            <mxPoint x="447" y="1235" as="sourcePoint" />
            <mxPoint x="327" y="1234.5" as="targetPoint" />
          </mxGeometry>
        </mxCell>
      </root>
    </mxGraphModel>
  </diagram>
</mxfile>
